<svg xmlns="http://www.w3.org/2000/svg" viewBox="0 0 500 500"><g id="freepik--background-complete--inject-18"><rect y="382.4" width="500" height="0.25" style="fill:#ebebeb"></rect><rect x="90.46" y="391.92" width="24.87" height="0.25" style="fill:#ebebeb"></rect><rect x="152.33" y="389.21" width="27.5" height="0.25" style="fill:#ebebeb"></rect><rect x="47.67" y="401.21" width="58.11" height="0.25" style="fill:#ebebeb"></rect><rect x="428.3" y="399.53" width="21.6" height="0.25" style="fill:#ebebeb"></rect><rect x="214.79" y="391.14" width="27.93" height="0.25" style="fill:#ebebeb"></rect><rect x="300.67" y="395.31" width="70.22" height="0.25" style="fill:#ebebeb"></rect><path d="M237,337.8H43.91a5.71,5.71,0,0,1-5.7-5.71V60.66A5.71,5.71,0,0,1,43.91,55H237a5.71,5.71,0,0,1,5.71,5.71V332.09A5.71,5.71,0,0,1,237,337.8ZM43.91,55.2a5.46,5.46,0,0,0-5.45,5.46V332.09a5.46,5.46,0,0,0,5.45,5.46H237a5.47,5.47,0,0,0,5.46-5.46V60.66A5.47,5.47,0,0,0,237,55.2Z" style="fill:#ebebeb"></path><path d="M453.31,337.8H260.21a5.72,5.72,0,0,1-5.71-5.71V60.66A5.72,5.72,0,0,1,260.21,55h193.1A5.71,5.71,0,0,1,459,60.66V332.09A5.71,5.71,0,0,1,453.31,337.8ZM260.21,55.2a5.47,5.47,0,0,0-5.46,5.46V332.09a5.47,5.47,0,0,0,5.46,5.46h193.1a5.47,5.47,0,0,0,5.46-5.46V60.66a5.47,5.47,0,0,0-5.46-5.46Z" style="fill:#ebebeb"></path><rect x="59.66" y="83.51" width="152.34" height="189.74" style="fill:#e6e6e6"></rect><rect x="61.23" y="83.51" width="154.13" height="189.74" style="fill:#f5f5f5"></rect><path d="M61.76,80.92H214a1.34,1.34,0,0,0,1.34-1.34h0A1.34,1.34,0,0,0,214,78.25H61.76a1.34,1.34,0,0,0-1.33,1.33h0A1.34,1.34,0,0,0,61.76,80.92Z" style="fill:#e6e6e6"></path><rect x="59.66" y="273.25" width="152.34" height="2.64" style="fill:#e6e6e6"></rect><rect x="84.06" y="273.25" width="146.74" height="2.64" style="fill:#f5f5f5"></rect><rect x="49.57" y="106.04" width="177.46" height="144.68" transform="translate(316.68 40.08) rotate(90)" style="fill:#fafafa"></rect><polygon points="116.21 267.11 127.37 89.65 147.44 89.65 136.28 267.11 116.21 267.11" style="fill:#fff"></polygon><polygon points="141.96 267.11 153.12 89.65 162.43 89.65 151.27 267.11 141.96 267.11" style="fill:#fff"></polygon><rect x="150.62" y="148.24" width="119.45" height="0.6" transform="translate(358.88 -61.8) rotate(90)" style="fill:#e6e6e6"></rect><g style="opacity:0.4"><path d="M56.11,89.34v171.2h0c8.87,0,16.88-8.23,20.51-21,7.69-26.93,19.54-71,23.2-151.15.56-12.38-2-12.84-5.38-12.84H59.82C57.77,75.58,56.11,81.74,56.11,89.34Z" style="fill:#e6e6e6"></path></g><g style="opacity:0.4"><path d="M219.23,89.34v171.2h0c-8.86,0-16.87-8.23-20.51-21-7.68-26.93-19.53-71-23.2-151.15-.56-12.38,2-12.84,5.38-12.84h34.62C217.57,75.58,219.23,81.74,219.23,89.34Z" style="fill:#e6e6e6"></path></g><rect x="162.16" y="305.12" width="17.67" height="77.27" style="fill:#e6e6e6"></rect><polygon points="172.18 382.4 179.83 382.4 179.83 369.58 172 369.58 172.18 382.4" style="fill:#f5f5f5"></polygon><rect x="60.31" y="305.12" width="17.67" height="77.27" style="fill:#e6e6e6"></rect><rect x="71.3" y="305.12" width="108.53" height="72.86" style="fill:#f5f5f5"></rect><polygon points="78.95 382.4 71.3 382.4 71.3 369.58 79.14 369.58 78.95 382.4" style="fill:#f5f5f5"></polygon><rect x="77.24" y="311.25" width="96.66" height="26.87" style="fill:#f0f0f0"></rect><path d="M125.57,329.29a7.85,7.85,0,1,1,7.84-7.84A7.85,7.85,0,0,1,125.57,329.29Zm0-14.86a7,7,0,1,0,7,7A7,7,0,0,0,125.57,314.43Z" style="fill:#fff"></path><rect x="77.24" y="344.62" width="96.66" height="26.87" style="fill:#f0f0f0"></rect><path d="M125.57,362.66a7.85,7.85,0,1,1,7.84-7.85A7.86,7.86,0,0,1,125.57,362.66Zm0-14.87a7,7,0,1,0,7,7A7,7,0,0,0,125.57,347.79Z" style="fill:#fff"></path><rect x="298.07" y="293.02" width="60.3" height="89.37" transform="translate(656.43 675.42) rotate(180)" style="fill:#e6e6e6"></rect><rect x="358.36" y="293.02" width="79.25" height="89.37" style="fill:#f0f0f0"></rect><rect x="298.07" y="285.41" width="139.54" height="9.26" transform="translate(735.68 580.08) rotate(180)" style="fill:#e6e6e6;opacity:0.7000000000000001;mix-blend-mode:multiply"></rect><rect x="295.03" y="284.47" width="63.34" height="8.56" transform="translate(653.39 577.49) rotate(180)" style="fill:#e6e6e6"></rect><rect x="358.36" y="284.47" width="82.29" height="8.56" style="fill:#f0f0f0"></rect><rect x="225.75" y="327.23" width="49.33" height="55.16" transform="translate(500.82 709.63) rotate(180)" style="fill:#ebebeb"></rect><rect x="275.07" y="327.23" width="64.83" height="55.16" style="fill:#f5f5f5"></rect><rect x="225.75" y="321" width="114.16" height="7.57" transform="translate(565.65 649.58) rotate(180)" style="fill:#e6e6e6;opacity:0.7000000000000001;mix-blend-mode:multiply"></rect><rect x="223.26" y="320.23" width="51.82" height="7" transform="translate(498.33 647.46) rotate(180)" style="fill:#ebebeb"></rect><rect x="275.07" y="320.23" width="67.32" height="7" style="fill:#f5f5f5"></rect><rect x="312.05" y="97.72" width="100.56" height="155.57" style="fill:#e6e6e6"></rect><rect x="313.51" y="97.72" width="107.7" height="155.57" style="fill:#f5f5f5"></rect><rect x="296.44" y="128.52" width="141.84" height="93.97" rx="5.4" transform="translate(542.87 -191.85) rotate(90)" style="fill:#fff"></rect><rect x="363.38" y="151.11" width="7.96" height="48.79" transform="translate(231.7 -208.36) rotate(45)" style="fill:#f5f5f5"></rect><rect x="349.19" y="136.92" width="7.96" height="48.79" transform="translate(217.51 -202.48) rotate(45)" style="fill:#f5f5f5"></rect><rect x="377.57" y="165.3" width="7.96" height="48.79" transform="translate(245.89 -214.23) rotate(45)" style="fill:#f5f5f5"></rect></g><g id="freepik--Shadow--inject-18"><ellipse id="freepik--path--inject-18" cx="250" cy="416.24" rx="193.89" ry="11.32" style="fill:#f5f5f5"></ellipse></g><g id="freepik--Character--inject-18"><path d="M251.66,345.48l1.13-3.87h-55l-20.73,70.63h10l10-34h13.28l10,34h11.76l10-34H255.3l10,34h6Zm-53.82,30.1,5.85-19.92,5.84,19.92ZM224.15,405l-7.84-26.72H232Zm8.64-29.42H215.51l-8.83-30.1.34-1.17H242Zm10,0,5.85-19.92,5.84,19.92Z" style="fill:#407BFF"></path><path d="M251.66,345.48l1.13-3.87h-55l-20.73,70.63h10l10-34h13.28l10,34h11.76l10-34H255.3l10,34h6Zm-53.82,30.1,5.85-19.92,5.84,19.92ZM224.15,405l-7.84-26.72H232Zm8.64-29.42H215.51l-8.83-30.1.34-1.17H242Zm10,0,5.85-19.92,5.84,19.92Z" style="opacity:0.2"></path><path d="M254.85,341.61H203.9l20.73,70.63h6l-10-34h39l10,34h6Zm-35,34-9.18-31.27h39l9.17,31.27Z" style="fill:#407BFF"></path><path d="M254.85,341.61H203.9l20.73,70.63h6l-10-34h39l10,34h6m-55.73-36.66-9.18-31.27h39l9.17,31.27Z" style="fill:#fff;opacity:0.4"></path><path d="M253.81,87.92s2.21-5.25,14.25-4c8.75.91,14.07,10.33,13.41,23.66s-6.13,19.08-6.13,19.08l-28.7-14.92S244.68,89.67,253.81,87.92Z" style="fill:#263238"></path><path d="M279.67,102v20.67C284.17,104.06,279.67,102,279.67,102Z" style="fill:#263238"></path><path d="M278.21,93.66l4.68,20.13C281.85,91.25,277,90.21,278.21,93.66Z" style="fill:#263238"></path><path d="M277.46,144.19c.73,1.94,1.5,4,2.32,6s1.64,4,2.53,6,1.84,3.86,2.83,5.7c.51.91,1,1.8,1.56,2.66.26.46.55.83.83,1.26l.37.54a1.81,1.81,0,0,0,.18.23,4,4,0,0,0,1.53.9,11.69,11.69,0,0,0,2.53.55,31,31,0,0,0,6,0,61.21,61.21,0,0,0,6.36-.83c2.13-.35,4.3-.82,6.37-1.29l1.35,3.77A62.63,62.63,0,0,1,299,174a33.92,33.92,0,0,1-7.32.72,18.16,18.16,0,0,1-4.07-.56,10.94,10.94,0,0,1-4.35-2.18,10.07,10.07,0,0,1-1-1c-.18-.2-.25-.3-.35-.42l-.29-.36c-.37-.49-.79-1-1.12-1.47l-1-1.49-1-1.51a70,70,0,0,1-3.41-6.14c-1-2.09-2-4.18-2.88-6.3s-1.7-4.23-2.44-6.5Z" style="fill:#ffc3bd"></path><path d="M310.35,170.44l5,1.29.85-6.78s-5.07-.06-7.49,2.17Z" style="fill:#ffc3bd"></path><polygon points="321.54 172.12 320.83 167.12 316.15 164.95 315.31 171.73 321.54 172.12" style="fill:#ffc3bd"></polygon><polygon points="321.54 172.12 320.83 167.12 318.7 166.13 316.15 171.78 321.54 172.12" style="opacity:0.2"></polygon><path d="M263.55,138.73c.31,2.6,2.2,7.61,3.74,11.36,1.12,2.7,2,4.73,2,4.73l1.49-.56,12.38-4.67c-.63-6.72-1.81-14.06-8.89-17.76C269.87,129.5,263,134.08,263.55,138.73Z" style="fill:#407BFF"></path><path d="M267.29,150.09c1.12,2.7,2,4.73,2,4.73l1.49-.56c-.08-2.64-.41-6.82-1.73-8.77A11.43,11.43,0,0,0,267.29,150.09Z" style="opacity:0.30000000000000004"></path><polygon points="220.68 333.59 228.7 334.35 230.85 315.85 222.84 315.09 220.68 333.59" style="fill:#ffc3bd"></polygon><polygon points="154.67 311.9 161.13 316.77 173.98 303.21 167.52 298.35 154.67 311.9" style="fill:#ffc3bd"></polygon><path d="M162.4,316.1l-4.63-7.83a.63.63,0,0,0-.8-.26l-6.55,2.89a1.34,1.34,0,0,0-.55,1.88c1.67,2.69,2.6,3.91,4.64,7.35,1.25,2.12,3.72,7,5.45,9.91s4.64,1.31,4.17-.07c-2.09-6.17-1.87-9.67-1.46-12.45A2.11,2.11,0,0,0,162.4,316.1Z" style="fill:#263238"></path><path d="M229.72,332h-9.55a.76.76,0,0,0-.73.58l-1.87,7.55a1.23,1.23,0,0,0,1.21,1.52c3.36,0,5-.24,9.16-.24,2.58,0,9.26.25,12.83.25s4.12-3.53,2.67-3.85c-6.52-1.43-10.3-3.4-12.35-5.29A2,2,0,0,0,229.72,332Z" style="fill:#263238"></path><polygon points="230.85 315.85 229.74 325.39 221.63 325.39 222.83 315.09 230.85 315.85" style="opacity:0.2"></polygon><polygon points="167.52 298.35 173.97 303.22 167.35 310.2 160.89 305.33 167.52 298.35" style="opacity:0.2"></polygon><path d="M225.5,165.1l30.43,12c23.24-41.55,20.29-44,20.29-44s-4.8-3.2-9.83-5.93c-.76-.41-1.53-.81-2.29-1.2a105.13,105.13,0,0,0-13.81-5.45c-.7-.24-1.39-.46-2.09-.68a97.72,97.72,0,0,0-11.46-2.7c-.72,5.92-1.4,10.92-2.1,15.26-.9,5.66-1.8,10.18-2.76,14.08A122.17,122.17,0,0,1,225.5,165.1Z" style="fill:#407BFF"></path><path d="M231.88,146.45c3.16-4.08,6.43-13.78,5.85-17.54l-3.09,3.46C233.74,138,232.84,142.55,231.88,146.45Z" style="opacity:0.30000000000000004"></path><path d="M270.18,128c-1.27-6.78-21.82-11.81-21.82-11.81L260,136.39l1.84.74S271,132.51,270.18,128Z" style="fill:#407BFF"></path><path d="M270.18,128c-1.27-6.78-21.82-11.81-21.82-11.81L260,136.39l1.84.74S271,132.51,270.18,128Z" style="opacity:0.30000000000000004"></path><path d="M255.89,111.77c-1.18,3.85-3,7.61-5.61,8.72,0,0-1.41,10,7.81,19.57,10.43-6.32,6-14.12,6-14.12-4.53-3.15-3.42-6.51-.07-11.52l-3.4-3.08A2.56,2.56,0,0,0,255.89,111.77Z" style="fill:#ffc3bd"></path><path d="M247.79,119.69l.57-3.5s4.75,2.56,6.72,6.7S254,134.83,254,134.83l-7.38-7.05Z" style="fill:#407BFF"></path><path d="M260.63,111.33a2.57,2.57,0,0,0-4.61.09,16.79,16.79,0,0,0,5.19,8.72,17.28,17.28,0,0,1,2.81-5.72Z" style="opacity:0.2"></path><path d="M252.63,98c.22,8.06.15,11.47,4,15.81,5.8,6.54,15.47,4.72,17.62-3.2,1.93-7.12,1.24-19.1-6.38-22.73A10.6,10.6,0,0,0,252.63,98Z" style="fill:#ffc3bd"></path><path d="M253.4,90.92c6,6.34,17.42,2.5,17.42,2.5l6,3.63-3.18-7.22-7-4.11S250.33,87.67,253.4,90.92Z" style="fill:#263238"></path><path d="M254.06,88.42a19.24,19.24,0,0,1,4.83,7.33c2,5-6,8.83-6,8.83S246.39,97.75,254.06,88.42Z" style="fill:#263238"></path><path d="M250.6,105.32a6,6,0,0,0,2.5,3.76c1.71,1.15,3.15-.23,3.17-2.19,0-1.76-.85-4.48-2.8-4.84S250.22,103.44,250.6,105.32Z" style="fill:#ffc3bd"></path><path d="M255.93,177.1s-5.39,40.62-9.33,71.86C243.47,273.79,232,321.65,232,321.65l-11.71-1.16s4.89-54.31,9.38-71.74c-2.77-35.85-10-70.56,1.81-81.47Z" style="fill:#263238"></path><polygon points="218.42 317.64 233.86 318.11 233.02 323.38 218.57 323.16 218.42 317.64" style="fill:#407BFF"></polygon><path d="M236.72,198.09,225,188.35c-.41,12.53,1.64,28.73,3.37,46C234.3,221.93,238.41,208.64,236.72,198.09Z" style="opacity:0.30000000000000004"></path><path d="M249.25,174.58s-21.68,45.19-30.36,75.33c-10.84,23.83-47.26,58-47.26,58l-8.3-7.41s29.11-48.81,39-57.09c4.74-34.91,8.45-68.43,23.16-78.29Z" style="fill:#263238"></path><polygon points="171.23 310.57 160.46 301.64 163.26 296.82 175.07 307.19 171.23 310.57" style="fill:#407BFF"></polygon><path d="M225.7,163.12l-2.37,2.21c-.18.17,0,.49.34.62l31.91,12.59c.28.11.55.07.63-.1l1.28-2.64c.08-.18-.1-.44-.4-.56l-30.81-12.16A.58.58,0,0,0,225.7,163.12Z" style="fill:#407BFF"></path><path d="M225.7,163.12l-2.37,2.21c-.18.17,0,.49.34.62l31.91,12.59c.28.11.55.07.63-.1l1.28-2.64c.08-.18-.1-.44-.4-.56l-30.81-12.16A.58.58,0,0,0,225.7,163.12Z" style="fill:#fff;opacity:0.2"></path><path d="M228.58,168.23l-.83-.33c-.16-.06-.25-.2-.21-.3l1.69-3.41c.05-.1.22-.13.38-.07l.83.33c.16.06.26.2.21.3L229,168.17C228.92,168.27,228.74,168.3,228.58,168.23Z" style="fill:#263238"></path><path d="M253.16,177.93l-.83-.33c-.16-.06-.26-.2-.21-.3l1.68-3.42c0-.1.23-.13.39-.06l.83.32c.16.07.26.2.21.3l-1.69,3.42C253.49,178,253.32,178,253.16,177.93Z" style="fill:#263238"></path><path d="M240.87,173.08l-.83-.33c-.16-.06-.26-.2-.21-.3l1.68-3.42c.05-.1.23-.13.39-.06l.83.33c.16.06.26.19.21.3L241.26,173C241.21,173.11,241,173.14,240.87,173.08Z" style="fill:#263238"></path><path d="M264.18,100.88c0,.66.31,1.21.73,1.23s.78-.49.8-1.14-.31-1.21-.73-1.23S264.21,100.23,264.18,100.88Z" style="fill:#263238"></path><path d="M271.45,101.29c0,.65.31,1.2.73,1.23s.77-.49.8-1.15-.31-1.2-.73-1.22S271.48,100.64,271.45,101.29Z" style="fill:#263238"></path><path d="M272.07,100.17l1.56-.36S272.79,101,272.07,100.17Z" style="fill:#263238"></path><path d="M270.63,102.21a18.11,18.11,0,0,0,2.16,4.3,2.71,2.71,0,0,1-2.31.31Z" style="fill:#ed847e"></path><path d="M267.43,109.34a.24.24,0,0,0,.12-.18.21.21,0,0,0-.19-.2,5.2,5.2,0,0,1-4.08-2.26.2.2,0,0,0-.26-.07.21.21,0,0,0-.07.27,5.57,5.57,0,0,0,4.4,2.45Z" style="fill:#263238"></path><path d="M263.55,98.34a.31.31,0,0,0,.16-.12,2.94,2.94,0,0,1,2.46-1.14.39.39,0,0,0,.42-.34.4.4,0,0,0-.34-.43,3.64,3.64,0,0,0-3.13,1.42.39.39,0,0,0,.06.54A.39.39,0,0,0,263.55,98.34Z" style="fill:#263238"></path><path d="M276.05,98.21a.1.1,0,0,0,0,0,.4.4,0,0,0-.14-.53,3.7,3.7,0,0,0-3.45-.28.39.39,0,0,0-.16.51.39.39,0,0,0,.51.18,3,3,0,0,1,2.73.25A.36.36,0,0,0,276.05,98.21Z" style="fill:#263238"></path><path d="M163.65,320.28l.12.05a1.05,1.05,0,0,0,1-.27.65.65,0,0,0,.26-.61c-.13-1-2.71-2.31-3-2.45a.17.17,0,0,0-.2,0,.19.19,0,0,0-.06.2C162.09,318.22,162.74,319.89,163.65,320.28Zm-1.36-2.73c1,.55,2.31,1.41,2.37,1.95a.27.27,0,0,1-.12.27.72.72,0,0,1-.67.19C163.35,319.8,162.77,318.91,162.29,317.55Z" style="fill:#407BFF"></path><path d="M162.06,317.43c.88.39,2.83.64,3.45.05a.67.67,0,0,0,.12-.83,1,1,0,0,0-.63-.57c-1.1-.34-3.06.87-3.14.93a.19.19,0,0,0-.09.17.19.19,0,0,0,.1.16Zm2.91-.95a.64.64,0,0,1,.32.33c.1.23,0,.33,0,.39-.41.39-2,.29-2.88-.05a4.26,4.26,0,0,1,2.51-.7Z" style="fill:#407BFF"></path><path d="M234,333.53a3.12,3.12,0,0,0,1.85-.45,1.16,1.16,0,0,0,.46-.92.57.57,0,0,0-.25-.52c-.89-.58-4.1.89-4.73,1.2a.17.17,0,0,0-.1.19.2.2,0,0,0,.15.17A13.17,13.17,0,0,0,234,333.53Zm1.47-1.65a.65.65,0,0,1,.38.08.19.19,0,0,1,.08.18.79.79,0,0,1-.32.64c-.55.42-1.86.48-3.58.16A11.61,11.61,0,0,1,235.47,331.88Z" style="fill:#407BFF"></path><path d="M231.42,333.2h.07c1.07-.45,3.19-2.19,3-3.09,0-.2-.17-.44-.66-.5-1.91-.23-2.61,3.22-2.64,3.37a.16.16,0,0,0,.07.18A.18.18,0,0,0,231.42,333.2ZM233.7,330h.13c.2,0,.31.08.33.17.08.53-1.38,1.9-2.46,2.5C231.93,331.82,232.56,330,233.7,330Z" style="fill:#407BFF"></path><path d="M264.8,99.77l1.56-.37S265.52,100.58,264.8,99.77Z" style="fill:#263238"></path><path d="M236.75,130.21c-3.23,3-6.49,6.11-9.61,9.23-1.56,1.57-3.07,3.17-4.51,4.78a44.42,44.42,0,0,0-3.89,4.85,8.74,8.74,0,0,0-1,1.86s0,0,0,0,0-.13,0,0a2.29,2.29,0,0,0,0,.37,4.29,4.29,0,0,0,.16.81,9.35,9.35,0,0,0,3.06,3.8A45.42,45.42,0,0,0,232,162l-1,3.89c-1.25-.18-2.37-.42-3.54-.7a35.81,35.81,0,0,1-3.46-1,32.13,32.13,0,0,1-6.76-3.09,18.75,18.75,0,0,1-3.22-2.48,13,13,0,0,1-2.7-3.73,10,10,0,0,1-.79-2.46,9.7,9.7,0,0,1-.15-1.32,6.49,6.49,0,0,1,0-.87c0-.28.07-.59.12-.83a11.11,11.11,0,0,1,.82-2.45c.31-.68.64-1.28,1-1.86a50.72,50.72,0,0,1,4.34-6c1.52-1.83,3.1-3.56,4.7-5.25,3.2-3.4,6.49-6.57,10-9.68Z" style="fill:#ffc3bd"></path><path d="M228.84,165.12l4,5.24,4-5.51s-3.75-3.4-7-3.33Z" style="fill:#ffc3bd"></path><polygon points="236.11 173.78 238.89 169.57 236.82 164.85 232.81 170.36 236.11 173.78" style="fill:#ffc3bd"></polygon><path d="M236.74,117.11c-4-.46-12.33,9-12.33,9l7.47,13.19s11.07-7.83,10.66-12.84C242.18,122.06,241.83,117.69,236.74,117.11Z" style="fill:#407BFF"></path></g><g id="freepik--Arrow--inject-18"><rect x="325.64" y="243.17" width="4.8" height="1" transform="translate(-47.07 405.77) rotate(-59.98)" style="fill:#407BFF"></rect><rect x="327.36" y="229.31" width="17.38" height="1" transform="translate(-31.06 405.8) rotate(-59.98)" style="fill:#407BFF"></rect><polygon points="368.01 126.35 298.46 157.98 325.39 157.98 233.26 317.44 281.95 317.44 374.08 157.98 401.01 157.98 368.01 126.35" style="fill:#407BFF"></polygon><polygon points="281.95 317.44 233.26 317.44 200.14 260.1 248.82 260.1 281.95 317.44" style="fill:#407BFF"></polygon><polygon points="281.95 317.44 233.26 317.44 200.14 260.1 248.82 260.1 281.95 317.44" style="opacity:0.30000000000000004"></polygon><polygon points="248.83 260.1 200.13 260.1 108 419.57 156.69 419.57 248.83 260.1" style="fill:#407BFF"></polygon></g></svg>